# xmcd
#
# Track frame offsets:
#	150
#	10572
#	22087
#	35917
#	48340
#	59942
#	72667
#	81427
#	95737
#	112480
#	124065
#	134767
#	149722
#	168320
#	188537
#	202155
#	234230
#	251250
#	263992
#
# Disc length: 3646 seconds
#
# Revision: 1
# Processed by: cddbd v1.5.1PL0 Copyright (c) Steve Scherf et al.
# Submitted via: audiograbber 1.83.01
#
DISCID=300e3c13
DTITLE=Various Artist - Railroad, Ladies and Drinking Songs[CD2]
DYEAR=1900
DGENRE=Country
TTITLE0=Don Gibson - Lonesome Number One
TTITLE1=Sammi Smith - Help Me Make Through The Night
TTITLE2=George Jones - A Good Year For The Roses
TTITLE3=Lynn Anderson - Stand By Your Man
TTITLE4=Kenny Rogers - Me and Bobby Mcgee
TTITLE5=Anne Murray - I Just Fall In Love Again
TTITLE6=Buck Owens - Why Don't Mommmy Stay With Daddy and Me
TTITLE7=Freddie Fender - Wasted Days and Wasted Nights
TTITLE8=Merle Haggard - Ramblin Fever
TTITLE9=Lynn Anderson - That'll Be The Day
TTITLE10=Conway Twitty - It's Only Make Believe
TTITLE11=Lorrie Morgan - Please Mr Please
TTITLE12=George Jones - Bartender Blues
TTITLE13=Merle Haggard - Tonight The Bottle Let Me Down
TTITLE14=Connie Smith - Did We Have To Come This Far To Say Goodbye
TTITLE15=Hank Williams  - Hank Williams Medley
TTITLE16=Tanya Tucker - The Night They Drove Old Dixie Down
TTITLE17=Bobby Bare - Tequila Sheila
TTITLE18=Johnny Rodriguez - We're Over
EXTD=
EXTT0=
EXTT1=
EXTT2=
EXTT3=
EXTT4=
EXTT5=
EXTT6=
EXTT7=
EXTT8=
EXTT9=
EXTT10=
EXTT11=
EXTT12=
EXTT13=
EXTT14=
EXTT15=
EXTT16=
EXTT17=
EXTT18=
PLAYORDER=
